PathFileType	4	(X/Y/Z)	D:\TRACE\spotREDO_2-26-24\spot_Both_Motion_3_9-v60.trc
DataRate	CameraRate	NumFrames	NumMarkers	Units	OrigDataRate	OrigDataStartFrame	OrigNumFrames
100.00	100.00	      28	9	mm	100.00	5251	      7000
Frame#	Time	front left toe			Front right toe			aft left toe			aft right toe			Arm			FL body			FR body			AL Body			AR Body			
		X1	Y1	Z1	X2	Y2	Z2	X3	Y3	Z3	X4	Y4	Z4	X5	Y5	Z5	X6	Y6	Z6	X7	Y7	Z7	X8	Y8	Z8	X9	Y9	Z9	

5251	52.500	-194.55133	17.19746	-448.73178	234.60907	15.51769	-468.11575	-164.36574	19.45786	138.74536	257.12033	26.16048	108.39414	37.36855	696.67731	-764.36359	-63.43748	569.63306	-520.16022	92.03732	572.22070	-524.50830	-43.84634	563.22028	363.71667	103.50227	555.75439	362.17184	
5252	52.510	-194.47989	17.23244	-448.76947	234.67789	15.28066	-468.12250	-164.33630	19.64106	138.82916	257.42899	26.24909	108.54369	37.71525	696.61450	-764.28638	-62.20400	569.46613	-519.27844	93.38846	571.98401	-523.45624	-42.62886	563.02368	364.40018	104.62739	555.65430	362.76755	
5253	52.520	-194.36613	17.07385	-448.85583	234.66595	15.14705	-468.22522	-164.25429	19.68387	138.83232	257.59738	26.45772	108.73212	37.92826	696.56311	-764.18475	-61.07819	569.54437	-518.85229	94.54113	572.37305	-523.21948	-41.35915	562.78320	365.16028	105.70587	555.64307	363.61755	
5254	52.530	-194.19786	16.95077	-448.89462	234.70039	14.88346	-468.27591	-164.11719	19.76912	138.75621	257.71671	26.44274	108.70200	38.12315	696.58429	-764.13647	-59.50858	569.41919	-517.94275	96.05266	572.37006	-522.38116	-40.14494	562.57520	365.73166	107.08836	555.18134	364.18268	
5255	52.540	-194.04877	16.79104	-448.95020	234.96214	14.68266	-468.13892	-163.90520	19.84888	138.74590	257.73853	26.48368	108.71777	38.03065	696.65662	-764.02393	-58.18726	569.38379	-517.41693	97.33291	572.29999	-521.63214	-39.03492	562.32678	366.64859	108.18267	555.13647	365.14505	
5256	52.550	-193.91093	16.72148	-449.03879	235.01468	14.09282	-468.21451	-163.71005	20.05600	138.61920	257.81738	26.45911	108.72009	37.97307	696.72272	-764.06549	-56.36974	569.14880	-516.63153	98.95589	572.34595	-520.88336	-37.70195	561.98334	367.20581	109.34591	555.14148	365.88223	
5257	52.560	-193.70897	16.61112	-449.27286	234.97568	13.59059	-468.37170	-163.45772	20.34875	138.48251	257.94357	26.55215	108.77467	37.61599	696.82117	-764.09198	-54.80745	569.26898	-515.81537	100.52710	572.48749	-520.08356	-36.55774	561.77283	368.03159	110.83442	554.79419	366.86432	
5258	52.570	-193.55734	16.30768	-449.39468	235.23822	13.38806	-468.37280	-163.18437	20.42649	138.48410	258.05020	26.56314	108.80091	37.49969	696.77863	-764.18054	-53.28930	568.98114	-515.06934	102.19636	572.36084	-519.15912	-35.22249	561.49292	368.94293	112.48605	554.80151	367.88339	
5259	52.580	-193.55873	16.01309	-449.44647	235.33215	13.13663	-468.31342	-163.12471	20.51723	138.37686	258.09808	26.59709	108.79229	37.26551	696.70569	-764.23248	-51.68187	568.87476	-514.12463	103.88322	572.27844	-518.20953	-33.93835	561.32574	369.77710	113.43714	554.55133	368.67825	
5260	52.590	-193.48933	19.39568	-448.20529	235.42717	11.41546	-468.86945	-162.87726	20.58431	138.51566	258.69809	25.95565	109.14307	37.20588	696.60846	-764.16870	-49.76871	568.53546	-512.95740	105.89648	572.30499	-517.10370	-32.35862	560.82764	370.75107	115.08161	554.13104	369.49408	
5261	52.600	-192.91153	28.25477	-444.66708	237.30020	10.86657	-468.18710	-162.51996	20.77980	138.34082	259.38803	25.73367	109.08488	37.13717	696.61139	-764.04578	-47.91079	567.93518	-512.51837	107.53538	572.07770	-516.32208	-31.71480	560.31909	371.37491	115.68185	554.47443	370.27145	
5262	52.610	-189.98259	40.54688	-441.43924	237.73198	10.25295	-468.28806	-162.18108	20.91650	138.25175	259.57101	25.73573	109.01971	37.38602	696.48517	-763.89093	-45.93089	567.12250	-512.02856	109.24323	571.95331	-515.62219	-30.70491	560.10352	371.91122	116.59685	554.49377	371.12341	
5263	52.620	-191.79350	56.46369	-439.92694	237.68271	10.00795	-468.38110	-162.17192	21.02960	138.16844	259.52936	25.90498	109.14806	37.48477	696.37701	-764.05322	-44.39444	566.44037	-511.28116	110.40426	571.96057	-515.00714	-29.40200	559.79681	372.66028	117.68004	554.82379	371.83417	
5264	52.630	-192.80591	75.46424	-441.36969	237.57880	9.41056	-468.66440	-162.06149	21.16308	138.17961	260.01071	26.10364	109.33501	37.66986	696.41827	-764.13611	-43.55817	565.70709	-510.90628	111.59850	571.38794	-513.88641	-28.64142	559.51080	373.04813	118.76760	554.96796	372.38300	
5265	52.640	-195.10652	93.64933	-444.50833	237.59334	9.19366	-468.61444	-161.84361	21.50895	138.07277	260.30365	25.97912	109.34935	37.68990	696.31488	-763.84369	-42.49387	565.21216	-509.99548	112.21989	571.24280	-513.41150	-27.41667	559.37555	373.79736	120.00468	554.91962	372.98996	
5266	52.650	-195.02480	111.74861	-448.42163	237.59001	9.14782	-468.63766	-161.50043	21.74743	138.07016	260.01285	25.47442	108.87476	37.58567	695.97083	-763.70337	-42.12504	565.30792	-509.47495	112.57104	571.33423	-513.14880	-26.25059	559.38098	374.56647	121.31306	554.65546	373.61646	
5267	52.660	-193.67091	127.71777	-450.31766	237.64124	9.07695	-468.64856	-161.25578	21.91117	138.10419	260.15097	25.50262	108.82696	37.70994	695.55701	-763.66669	-41.93154	565.37421	-508.82300	113.08533	571.36700	-512.63495	-24.96908	559.13104	375.28064	122.08309	554.55212	374.29031	
5268	52.670	-193.06186	141.17986	-449.64047	237.68784	8.79660	-468.70087	-161.11301	22.14801	138.07224	260.35538	25.52129	108.71577	37.95680	695.37842	-763.47467	-41.92776	565.39905	-507.99084	112.98402	571.41840	-512.17523	-24.24178	559.03320	375.67346	122.95680	554.27545	374.53354	
5269	52.680	-191.47040	152.47414	-447.79971	237.90450	8.53476	-468.78149	-161.13374	22.24192	138.05664	260.59833	25.62844	108.57771	38.68173	694.99988	-763.60010	-41.88263	565.27930	-507.41760	113.19356	571.29498	-511.72391	-23.66133	558.95599	376.26193	123.60423	554.16199	374.87549	
5270	52.690	-192.19539	160.91565	-446.24500	237.93275	8.04528	-469.11993	-161.00951	22.37958	138.06499	260.81985	25.77677	108.49590	39.71498	694.57855	-763.71155	-42.01773	565.04443	-507.15677	113.36834	570.95599	-511.31094	-23.42348	558.92212	376.86887	124.01640	554.23309	375.36163	
5271	52.700	-192.72386	168.26270	-446.47070	238.06139	7.70662	-469.19604	-160.93709	22.50584	137.93089	260.93805	25.87295	108.43057	40.69118	694.21844	-763.44476	-41.87338	564.73090	-506.91620	113.51370	570.57831	-510.87491	-23.37573	559.01086	377.25681	124.13189	554.46991	375.93781	
5272	52.710	-193.39938	174.57220	-447.41528	238.36594	7.60653	-469.09628	-160.74861	22.54605	137.89172	261.03406	26.02655	108.43622	41.27236	693.89594	-763.40424	-41.82419	564.32501	-506.39023	113.53216	570.25525	-510.47522	-23.59316	559.26367	377.57727	124.03178	554.70068	376.32376	
5273	52.720	-192.48654	178.57445	-447.26709	237.93396	7.32578	-469.48038	-160.80373	22.38071	137.75171	261.00998	26.23221	108.34982	41.93087	693.87634	-763.29248	-42.02206	564.08490	-506.03958	113.38445	569.94281	-510.14301	-23.85083	559.42163	377.84833	123.52859	554.90369	376.69342	
5274	52.730	-189.79308	178.88971	-445.43317	238.30263	6.96084	-469.49863	-160.68898	22.34335	137.72046	260.99261	26.38415	108.20623	43.06341	694.02698	-762.87512	-42.55074	563.69641	-505.72656	112.83640	569.49438	-509.86960	-24.11124	559.50208	378.02817	123.21548	554.92572	376.81259	
5275	52.740	-186.46381	176.79265	-442.90842	238.24815	6.68227	-469.78500	-160.61800	22.38735	137.64153	261.11789	26.57913	108.12969	45.25291	694.12769	-762.34363	-43.48173	563.45508	-505.49838	112.00688	569.17401	-509.90332	-24.28805	559.48999	378.26477	123.07403	554.87219	376.93726	
5276	52.750	-181.59190	170.34253	-441.31210	238.20335	6.46627	-470.08984	-160.54713	22.38994	137.63811	261.26312	26.63807	108.03938	48.00581	694.20074	-761.71228	-44.27003	563.37482	-505.57175	111.16349	569.01007	-509.93335	-24.61158	559.51624	378.37973	122.78159	554.90985	376.83908	
5277	52.760	-177.04286	159.11655	-441.04861	237.99525	6.10110	-470.43607	-160.38995	22.43072	137.53091	261.83566	26.94909	108.19196	51.16296	694.39917	-761.54358	-45.35129	563.26379	-505.25494	110.23892	568.91937	-509.82571	-25.12146	559.64941	378.46530	122.13529	555.01263	376.81073	
5278	52.770	-172.80670	142.78050	-442.00821	238.28653	5.83531	-470.40549	-160.17772	22.34603	137.42801	261.68799	26.86577	107.75459	54.13254	694.62433	-761.89209	-46.00046	562.75592	-505.07959	109.34614	568.77618	-509.73419	-25.72988	559.83417	378.59140	121.83765	555.18225	376.94525	
